<?xml version="1.0" encoding="utf-8"?>
<!-- Generator: Adobe Illustrator 17.0.0, SVG Export Plug-In . SVG Version: 6.00 Build 0)  -->
<!DOCTYPE svg PUBLIC "-//W3C//DTD SVG 1.1//EN" "http://www.w3.org/Graphics/SVG/1.1/DTD/svg11.dtd">
<svg version="1.1" id="Layer_1" xmlns="http://www.w3.org/2000/svg" xmlns:xlink="http://www.w3.org/1999/xlink" x="0px" y="0px"
	 width="120.21px" height="119.948px" viewBox="0 0 120.21 119.948" enable-background="new 0 0 120.21 119.948"
	 xml:space="preserve">
<path fill="#ea7e1e" d="M31.072,17.669c1.057,0,2.113-0.028,3.169,0.007c1.974,0.064,3.427-0.766,4.464-2.43
	c1.075-1.722,2.182-3.426,3.295-5.125c2.289-3.498,5.996-4.376,9.648-2.306c1.801,1.021,3.616,2.02,5.412,3.051
	c1.59,0.912,3.154,0.898,4.737-0.011c1.797-1.03,3.605-2.037,5.409-3.054c3.653-2.06,7.321-1.18,9.642,2.338
	c1.142,1.729,2.247,3.481,3.362,5.228c0.998,1.566,2.393,2.372,4.277,2.301c2.111-0.08,4.223-0.156,6.336-0.196
	c4.133-0.078,7.109,2.733,7.351,6.844c0.12,2.025,0.316,4.049,0.528,6.068c0.192,1.831,1.109,3.169,2.814,3.972
	c1.908,0.9,3.794,1.85,5.678,2.803c3.516,1.781,4.884,5.391,3.427,9.051c-0.795,1.996-1.609,3.987-2.445,5.969
	c-0.727,1.73-0.521,3.315,0.593,4.816c1.232,1.665,2.437,3.352,3.658,5.025c2.457,3.366,2.025,7.174-1.14,9.883
	c-1.481,1.268-2.946,2.563-4.49,3.751c-1.733,1.334-2.353,3.029-2.009,5.143c0.299,1.843,0.561,3.692,0.867,5.532
	c0.734,4.414-1.487,7.683-5.85,8.601c-1.865,0.392-3.721,0.831-5.589,1.209c-1.968,0.398-3.262,1.493-3.889,3.428
	c-0.66,2.044-1.381,4.07-2.116,6.089c-1.286,3.536-4.651,5.327-8.282,4.393c-2.16-0.556-4.302-1.177-6.45-1.777
	c-1.712-0.48-3.212-0.098-4.502,1.107c-1.573,1.471-3.126,2.965-4.7,4.435c-2.957,2.762-6.766,2.759-9.732-0.006
	c-1.456-1.358-2.931-2.699-4.338-4.109c-1.535-1.54-3.278-1.953-5.347-1.322c-1.977,0.602-3.97,1.161-5.973,1.67
	c-3.653,0.928-6.978-0.848-8.278-4.404c-0.723-1.981-1.43-3.97-2.069-5.978c-0.629-1.978-1.914-3.128-3.94-3.532
	c-1.868-0.372-3.724-0.817-5.589-1.211c-4.369-0.925-6.565-4.164-5.835-8.605c0.304-1.842,0.587-3.687,0.874-5.531
	c0.319-2.054-0.244-3.737-1.94-5.055c-1.603-1.246-3.131-2.589-4.671-3.916c-2.992-2.577-3.458-6.389-1.169-9.608
	c1.177-1.654,2.363-3.305,3.602-4.916c1.285-1.669,1.556-3.404,0.69-5.354c-0.807-1.814-1.531-3.667-2.277-5.51
	c-1.579-3.895-0.2-7.522,3.577-9.4c1.817-0.905,3.636-1.804,5.469-2.674c1.695-0.806,2.617-2.148,2.804-3.983
	c0.21-2.061,0.404-4.124,0.537-6.19c0.255-3.953,3.265-6.778,7.236-6.711c1.056,0.018,2.111,0.093,3.167,0.142V17.669z
	 M95.025,61.289C94.9,41.52,78.915,25.583,59.297,25.672C39.688,25.761,23.72,41.834,23.8,61.403
	c0.082,19.703,16.231,35.635,35.976,35.493C79.144,96.757,95.147,80.593,95.025,61.289 M28.249,61.205
	C28.305,44.018,42.37,30.041,59.53,30.12c17.141,0.079,31.125,14.121,31.058,31.19C90.52,78.586,76.517,92.501,59.24,92.459
	C42.175,92.418,28.195,78.318,28.249,61.205 M54.831,64.862c-2.678-2.372-5.213-4.649-7.782-6.887
	c-3.24-2.821-4.149-2.746-6.959,0.472c-0.962,1.102-1.125,2.065-0.383,3.341c0.589,1.012,1.279,1.976,2.004,2.9
	c3.732,4.762,7.501,9.495,11.231,14.26c1.406,1.795,2.709,1.819,4.051-0.047c7.016-9.758,14.028-19.519,21.03-29.287
	c1.98-2.761,1.876-3.331-0.837-5.442c-0.16-0.124-0.314-0.257-0.476-0.381c-1.752-1.342-2.427-1.278-3.891,0.401
	c-2.751,3.152-5.495,6.309-8.241,9.465C61.356,57.364,58.133,61.068,54.831,64.862"/>
</svg>
