<?xml version="1.0" encoding="utf-8"?>
<!-- Generator: Adobe Illustrator 17.0.0, SVG Export Plug-In . SVG Version: 6.00 Build 0)  -->
<!DOCTYPE svg PUBLIC "-//W3C//DTD SVG 1.1//EN" "http://www.w3.org/Graphics/SVG/1.1/DTD/svg11.dtd">
<svg version="1.1" id="Layer_1" xmlns="http://www.w3.org/2000/svg" xmlns:xlink="http://www.w3.org/1999/xlink" x="0px" y="0px"
	 width="120.21px" height="119.948px" viewBox="0 0 120.21 119.948" enable-background="new 0 0 120.21 119.948"
	 xml:space="preserve">
<path fill="#2a9238" d="M108.614,20.761v24.706c-0.048,0.145-0.109,0.289-0.143,0.438c-0.74,3.183-2.377,5.881-4.569,8.244
	c-1.457,1.572-3.035,3.028-4.55,4.545c-2.702,2.702-5.393,5.415-8.095,8.117c-2.429,2.429-4.868,4.847-7.297,7.277
	c-2.685,2.684-5.363,5.375-8.045,8.06c-2.466,2.467-4.935,4.928-7.402,7.395c-2.941,2.939-5.88,5.882-8.82,8.822
	c-2.757,2.759-5.518,5.515-8.275,8.274c-1.153,1.155-2.316,2.302-3.9,2.863c-3.057,1.08-5.739,0.163-7.943-1.917
	c-3.57-3.37-6.964-6.925-10.434-10.399c-2.977-2.981-5.965-5.953-8.938-8.938c-2.278-2.291-4.617-4.527-6.784-6.918
	c-1.837-2.026-2.635-4.443-1.695-7.181c0.565-1.648,1.602-2.967,2.855-4.176c3.497-3.373,6.937-6.806,10.405-10.21
	c7.276-7.139,14.557-14.274,21.83-21.416c6.437-6.32,12.865-12.649,19.303-18.968c0.942-0.924,1.862-1.88,2.89-2.698
	c1.558-1.239,3.476-1.442,5.373-1.464c3-0.034,6.004,0.074,9.005,0.085c5.256,0.021,10.512-0.003,15.768,0.024
	c2.276,0.012,4.554,0.065,6.826,0.173c1.576,0.075,1.927,0.437,2.176,1.974C108.333,18.564,108.463,19.665,108.614,20.761
	 M67.833,56.192c0.148,0.182,0.187,0.216,0.208,0.259c0.043,0.094,0.079,0.191,0.11,0.289c0.453,1.464,0.06,2.799-0.585,4.112
	c-0.108,0.218-0.146,0.668-0.022,0.769c1.667,1.336,3.369,2.629,5.103,3.965c1.708-2.483,2.626-5.07,2.156-8.032
	c-0.298-1.879-1.079-3.554-2.207-5.064c-0.344-0.462-0.293-0.741,0.117-1.1c0.474-0.415,0.895-0.892,1.297-1.297
	c-0.962-0.978-1.825-1.855-2.819-2.865c-0.202,0.269-0.373,0.527-0.575,0.759c-0.22,0.253-0.483,0.469-0.702,0.723
	c-0.306,0.358-0.617,0.411-0.987,0.1c-0.197-0.167-0.408-0.319-0.624-0.462c-3.115-2.056-6.412-2.626-9.962-1.244
	c-2.015,0.786-3.58,2.157-4.885,3.824c-1.844,2.356-2.718,5.031-2.328,8.043c0.252,1.943,0.84,3.79,1.819,5.491
	c0.344,0.594,0.275,0.981-0.231,1.459c-1.336,1.258-2.625,2.567-3.905,3.882c-1.094,1.12-2.15,2.275-3.224,3.415l-0.27-0.198
	c-0.654-2.497-0.103-4.812,1.248-7.027c-1.842-1.487-3.625-2.926-5.441-4.391c-1.539,2.055-2.654,4.236-3.05,6.702
	c-0.502,3.11,0.313,5.946,2.08,8.525c0.677,0.988,0.682,0.988-0.2,1.82c-0.881,0.831-1.763,1.658-2.58,2.427
	c1.012,1.044,1.886,1.946,2.928,3.023c1.149-1.244,2.267-2.452,3.364-3.641c0.663,0.419,1.222,0.793,1.8,1.135
	c3.295,1.953,6.742,2.327,10.348,0.973c2.301-0.865,4.11-2.407,5.576-4.314c1.699-2.207,2.562-4.689,2.062-7.548
	c-0.354-2.021-1.165-3.853-2.082-5.652c-0.773-1.515-0.797-1.501,0.413-2.727C63.781,60.3,65.779,58.274,67.833,56.192
	 M88.501,29.314c-0.002,3.332,2.75,6.072,6.082,6.056c3.3-0.016,6.034-2.737,6.047-6.017c0.015-3.319-2.72-6.074-6.047-6.097
	C91.269,23.235,88.502,25.99,88.501,29.314"/>
</svg>
