<?xml version="1.0" encoding="utf-8"?>
<!-- Generator: Adobe Illustrator 17.0.0, SVG Export Plug-In . SVG Version: 6.00 Build 0)  -->
<!DOCTYPE svg PUBLIC "-//W3C//DTD SVG 1.1//EN" "http://www.w3.org/Graphics/SVG/1.1/DTD/svg11.dtd">
<svg version="1.1" id="Layer_1" xmlns="http://www.w3.org/2000/svg" xmlns:xlink="http://www.w3.org/1999/xlink" x="0px" y="0px"
	 width="120.21px" height="119.948px" viewBox="0 0 120.21 119.948" enable-background="new 0 0 120.21 119.948"
	 xml:space="preserve">
<path fill="#2a9238" d="M44.275,91.337c-0.012-0.285-0.012-0.568-0.016-0.851h-6.111v-2.569h6.167
	c0.059-0.968,0.158-1.925,0.298-2.87h-6.491v-2.578h6.975c0.686-2.985,1.777-5.82,3.22-8.441V39.671h7.679
	c-0.255,1.723-0.432,3.398-0.76,5.044c-1.52,7.643-3.117,15.269-4.61,22.916c-0.237,1.211-0.432,2.43-0.617,3.651
	c1.497-2.174,3.256-4.157,5.241-5.903c1.719-8.557,3.884-17.016,4.882-25.707h7.731c-0.292,3.075-1.057,5.955-2.284,8.674
	c-2.127,4.719-4.389,9.376-6.588,14.061c-0.032,0.069-0.063,0.138-0.095,0.207c2.399-1.563,5.035-2.815,7.863-3.702
	c1.251-2.62,2.495-5.245,3.673-7.898c1.86-4.187,3.038-8.582,3.048-13.229c-0.097-1.306-0.125-2.621-0.303-3.916
	C71.189,19.358,58.17,8.966,43.586,10.51c-10.988,1.165-18.612,7.15-22.758,17.339c-2.813,6.914-2.437,13.986,0.296,20.831
	c1.96,4.91,4.419,9.617,6.555,14.46c1.51,3.423,3.008,6.867,4.206,10.405c0.617,1.822,0.526,3.876,0.841,5.811
	c0.129,0.788,0.476,1.541,0.747,2.302c0.138,0.388,0.467,0.754,0.473,1.134c0.041,2.533,0.005,5.066,0.019,7.599
	c0.013,2.56,1.7,4.233,4.27,4.26c1.013,0.01,2.028,0.043,3.039-0.003c0.675-0.031,1.15,0.176,1.634,0.668
	c0.578,0.588,1.288,1.003,2.036,1.235C44.578,94.851,44.347,93.109,44.275,91.337 M43.745,77.053
	c-0.494,0.177-0.627-0.235-0.682-0.667c-0.291-2.265-0.486-4.55-0.919-6.789c-1.117-5.781-2.385-11.533-3.507-17.314
	c-0.776-3.999-1.41-8.024-2.105-12.038c-0.028-0.168-0.024-0.342-0.038-0.569h7.629c0.013,0.281,0.037,0.566,0.037,0.85
	c0,10.367-0.008,20.733,0.003,31.1c0.002,1.542,0.122,3.085,0.118,4.627C44.28,76.531,43.995,76.963,43.745,77.053 M45.302,15.835
	c12.357-0.498,21.673,9.181,22.493,19.678c-0.555,0-1.104-0.001-1.654,0c-1.668,0.001-3.338,0.031-5.005-0.019
	c-0.337-0.01-0.763-0.241-0.98-0.507c-0.945-1.155-2.422-1.154-3.374,0.001c-0.219,0.265-0.649,0.495-0.987,0.502
	c-2.293,0.043-4.589,0.043-6.882,0c-0.34-0.006-0.775-0.226-0.993-0.49c-0.962-1.162-2.422-1.177-3.379-0.031
	c-0.224,0.268-0.643,0.518-0.977,0.524c-2.324,0.045-4.649,0.042-6.972,0.003c-0.315-0.005-0.72-0.216-0.92-0.463
	c-0.99-1.216-2.441-1.228-3.413-0.006c-0.176,0.22-0.49,0.46-0.743,0.464c-2.175,0.036-4.35,0.022-6.526,0.017
	c-0.111,0-0.223-0.049-0.33-0.074C25.28,25.977,33.526,16.311,45.302,15.835 M37.413,73.998c-0.388-3.299-1.611-6.333-2.968-9.303
	c-2.124-4.652-4.424-9.225-6.572-13.867c-1.514-3.273-2.743-6.654-3.206-10.265c-0.034-0.265-0.063-0.529-0.104-0.869h7.713
	c1.545,12.5,5.197,24.646,6.931,37.223c-0.457,0.073-0.744,0.119-1.141,0.183C37.84,76.05,37.536,75.034,37.413,73.998
	 M74.097,64.987h4.941c0.23,0.074,0.454,0.185,0.689,0.216c9.99,1.332,18.071,8.374,20.693,18.074
	c0.35,1.297,0.571,2.628,0.852,3.943v4.941c-0.074,0.23-0.187,0.455-0.219,0.691c-1.857,13.851-14.566,23.388-28.331,21.254
	c-11.466-1.778-20.372-11.674-20.837-23.156c-0.487-12.003,7.355-22.509,18.857-25.25C71.854,65.435,72.979,65.222,74.097,64.987
	 M79.656,77.401h-6.204v9.222h-9.141v6.202h9.166v9.137h6.211v-9.209h9.16v-6.203h-9.192V77.401z"/>
</svg>
