<?xml version="1.0" encoding="utf-8"?>
<!-- Generator: Adobe Illustrator 17.0.0, SVG Export Plug-In . SVG Version: 6.00 Build 0)  -->
<!DOCTYPE svg PUBLIC "-//W3C//DTD SVG 1.1//EN" "http://www.w3.org/Graphics/SVG/1.1/DTD/svg11.dtd">
<svg version="1.1" id="Layer_1" xmlns="http://www.w3.org/2000/svg" xmlns:xlink="http://www.w3.org/1999/xlink" x="0px" y="0px"
	 width="120.21px" height="119.948px" viewBox="0 0 120.21 119.948" enable-background="new 0 0 120.21 119.948"
	 xml:space="preserve">
<path fill="#ea7e1e" d="M47.865,9.442c1.963,0.485,3.972,0.833,5.88,1.478c11.002,3.718,18.614,15.292,17.487,26.469
	C69.948,50.122,61.028,59.841,48.955,61.44c-5.321,0.705-10.54,0.113-15.364-2.464c-1.187-0.634-2.067-0.679-3.262,0.086
	c-2.668,1.71-5.668,2.405-8.844,2.06c-0.51-0.055-0.978-0.489-1.467-0.748c0.309-0.457,0.551-0.984,0.942-1.354
	c0.596-0.566,1.349-0.968,1.942-1.537c2.989-2.87,3.073-3.727,0.792-7.023C12.665,34.519,22.15,12.719,41.38,9.8
	c0.36-0.054,0.702-0.235,1.053-0.358H47.865z M37.82,42.175c-2.049,3.983-1.676,4.826,2.572,5.746
	c0.148,0.031,0.296,0.063,0.447,0.074c1.554,0.118,2.302,0.85,2.06,2.498c-0.248,1.687,0.913,1.754,2.141,1.78
	c1.295,0.027,2.368-0.229,2.156-1.815c-0.246-1.844,0.607-2.558,2.24-3.241c2.672-1.116,4.263-3.273,4.354-6.31
	c0.092-3.091-1.29-5.382-3.95-6.846c-1.444-0.794-3.034-1.313-4.511-2.05c-1.259-0.627-2.89-1.207-2.45-3.035
	c0.469-1.955,2.27-1.753,3.729-1.603c1.611,0.166,3.191,0.64,4.774,0.978c2.259-4.206,2.259-4.206-3.854-6.082
	c-0.044-0.25-0.147-0.542-0.135-0.828c0.066-1.504-0.079-2.554-2.128-2.563c-1.96-0.01-2.383,0.846-2.191,2.447
	c0.17,1.418-0.816,1.754-1.82,2.151c-2.804,1.105-4.343,3.218-4.533,6.182c-0.181,2.843,1.242,4.934,3.655,6.279
	c1.567,0.875,3.281,1.483,4.904,2.264c1.383,0.665,2.913,1.446,2.463,3.295c-0.46,1.893-2.208,2.221-3.827,2.012
	C41.93,43.252,39.988,42.665,37.82,42.175"/>
<path fill="#ea7e1e" d="M67.245,106.005H56.777c-0.054,0.387-0.132,0.748-0.147,1.111c-0.178,4.155-0.195,4.175-4.256,4.176
	c-3.394,0-6.787,0.016-10.181-0.006c-2.531-0.016-3.274-0.703-3.353-3.156c-0.151-4.724-1.947-8.717-5.069-12.237
	c-5.32-5.998-8.89-12.872-9.623-20.96c-0.223-2.451,0.038-4.955,0.224-7.424c0.037-0.485,0.721-0.943,1.158-1.362
	c0.133-0.128,0.472-0.019,0.65-0.126c5.075-3.038,9.948-0.125,14.914,0.451c16.448,1.907,30.641-7.856,34.491-23.836
	c0.843-3.506,2.904-5.746,5.891-7.223c1.86-0.92,3.932-1.513,5.975-1.91c0.947-0.183,2.562,0.142,2.957,0.793
	c0.482,0.794,0.13,2.2-0.091,3.295c-0.498,2.464-1.381,4.877-1.606,7.357c-0.1,1.104,0.74,2.603,1.617,3.434
	c3.944,3.74,7.144,7.96,9.072,13.059c0.421,1.115,0.97,1.45,2.122,1.466c4.332,0.062,5.505,1.287,5.52,5.545
	c0.007,2.338,0.008,4.676-0.001,7.014c-0.017,4.151-1.286,5.45-5.349,5.497c-0.448,0.005-0.897,0-1.548,0
	c-2.075,6.768-6.439,11.92-11.491,16.674c-2.55,2.399-3.577,5.677-3.556,9.239c0.026,4.318-0.074,4.385-4.479,4.386
	c-3.017,0-6.033,0.001-9.05,0c-3.776-0.002-4.152-0.364-4.242-4.053C67.317,106.845,67.278,106.483,67.245,106.005 M86.234,63.663
	c1.786-0.067,3.287-1.631,3.263-3.399c-0.028-1.911-1.623-3.388-3.547-3.282c-1.784,0.099-3.274,1.719-3.17,3.449
	C82.886,62.201,84.517,63.727,86.234,63.663"/>
</svg>
