<?xml version="1.0" encoding="utf-8"?>
<!-- Generator: Adobe Illustrator 17.0.0, SVG Export Plug-In . SVG Version: 6.00 Build 0)  -->
<!DOCTYPE svg PUBLIC "-//W3C//DTD SVG 1.1//EN" "http://www.w3.org/Graphics/SVG/1.1/DTD/svg11.dtd">
<svg version="1.1" id="Layer_1" xmlns="http://www.w3.org/2000/svg" xmlns:xlink="http://www.w3.org/1999/xlink" x="0px" y="0px"
	 width="120.21px" height="119.948px" viewBox="0 0 120.21 119.948" enable-background="new 0 0 120.21 119.948"
	 xml:space="preserve">
<g>
	<path fill="#E87A24" d="M111.462,56.582v6.817c-0.061,0.214-0.16,0.422-0.175,0.637c-0.545,7.262-2.572,14.098-6.062,20.479
		c-10.124,18.508-30.118,28.878-51.098,26.413c-13.664-1.606-25.022-7.757-33.639-18.427C9.399,78.768,6.179,63.125,10.771,46.081
		c5.23-19.42,22.064-34.075,41.932-36.867c1.341-0.187,2.681-0.369,4.022-0.554h6.816c0.179,0.063,0.355,0.158,0.539,0.171
		c6.974,0.517,13.61,2.318,19.754,5.661c15.167,8.252,24.216,20.919,27.057,37.974C111.118,53.833,111.274,55.21,111.462,56.582"/>
	<path fill-rule="evenodd" clip-rule="evenodd" fill="#FFFFFF" d="M83.298,45.372c-0.03,0.096-0.074,0.191-0.089,0.288
		c-0.505,3.411-3.517,6.018-6.948,6.02h-5.563h-0.486v-0.606c0-2.359,0.01-4.717-0.001-7.076c-0.008-2.09-1.371-3.683-3.238-3.695
		c-4.316-0.028-8.633-0.01-12.947-0.004c-0.81,0-1.502,0.321-2.077,0.879c-0.804,0.779-1.13,1.754-1.133,2.851
		c-0.004,2.374,0,4.746,0,7.12v0.531h-6.078c-3.77-0.002-6.995-3.217-6.997-6.977c-0.002-3.99,0-7.979,0-11.97
		c0-4.055,3.135-7.198,7.178-7.198h7.298h0.552V24.99c0.002-1.304-0.022-2.611,0.016-3.915c0.056-1.874,1.632-3.369,3.509-3.372
		c2.807-0.002,5.611-0.001,8.412,0c1.928,0.003,3.495,1.503,3.541,3.434c0.033,1.29,0.008,2.582,0.012,3.871v0.527h0.526h7.386
		c3.11,0,5.826,1.975,6.779,4.939c0.142,0.45,0.232,0.914,0.348,1.371V45.372z M47.268,45.883c0.039-1.18-0.016-2.384,0.187-3.542
		c0.581-3.307,3.412-5.591,6.767-5.591c4.185,0,8.367,0.046,12.55-0.014c3.296-0.052,6.162,2.318,6.801,5.572
		c0.171,0.863,0.162,1.769,0.184,2.655c0.032,1.036,0.007,2.072,0.007,3.176c1.27-0.067,2.532,0.204,3.747-0.272
		c1.403-0.552,2.233-1.855,2.236-3.519c0.004-3.826,0.003-7.651-0.001-11.48c0-0.294-0.025-0.592-0.08-0.882
		c-0.308-1.644-1.695-2.833-3.362-2.9c-0.164-0.008-0.326-0.01-0.489-0.01c-10.205-0.003-20.409,0.002-30.612-0.007
		c-1.425-0.001-2.615,0.453-3.35,1.705c-0.304,0.516-0.532,1.16-0.538,1.751c-0.046,4.048-0.046,8.097-0.017,12.147
		c0.017,1.892,1.558,3.398,3.44,3.455c0.825,0.024,1.653,0.003,2.524,0.003C47.262,47.36,47.245,46.621,47.268,45.883"/>
	<path fill-rule="evenodd" clip-rule="evenodd" fill="#FFFFFF" d="M52.77,46.002c0-0.059,0.005-0.121,0.006-0.179
		c0.082-1.873,1.638-3.374,3.511-3.376c2.801-0.002,5.604-0.002,8.405,0c1.934,0.002,3.531,1.49,3.55,3.417
		c0.034,3.645,0.034,7.293,0.002,10.938c-0.021,1.926-1.615,3.421-3.548,3.423h-8.139c-2.297,0-3.784-1.481-3.789-3.774
		c-0.003-1.704,0-3.409,0-5.114C52.768,49.558,52.768,47.78,52.77,46.002 M64.198,49.85c0.714-0.003,0.948-0.243,0.955-0.967
		c0-0.281,0.009-0.564-0.004-0.845c-0.024-0.519-0.288-0.792-0.811-0.803c-0.771-0.014-1.541-0.004-2.312-0.004
		c-1.747,0-3.498-0.001-5.247,0c-0.781,0.001-1.009,0.227-1.012,0.999c0,0.268-0.007,0.533,0.003,0.802
		c0.014,0.555,0.266,0.813,0.824,0.815c1.289,0.009,2.578,0.003,3.868,0.003C61.707,49.85,62.953,49.854,64.198,49.85
		 M56.687,53.533c-0.676,0.002-0.91,0.241-0.918,0.906c-0.003,0.281-0.006,0.561,0,0.845c0.011,0.599,0.264,0.863,0.873,0.865
		c1.66,0.006,3.321,0.003,4.982,0.003c0.874,0,1.749,0.003,2.622,0c0.629-0.008,0.891-0.269,0.903-0.893
		c0.007-0.295,0.009-0.593,0-0.889c-0.016-0.572-0.278-0.833-0.86-0.837c-1.274-0.006-2.549-0.001-3.823-0.001
		C59.206,53.532,57.948,53.527,56.687,53.533"/>
	<path fill-rule="evenodd" clip-rule="evenodd" fill="#FFFFFF" d="M75.944,34.358c0.902,0,1.601-0.706,1.59-1.609
		c-0.012-0.881-0.703-1.58-1.576-1.589c-0.885-0.008-1.615,0.708-1.621,1.596C74.33,33.647,75.044,34.357,75.944,34.358"/>
	<text transform="matrix(1 0 0 1 30.0695 93.2181)"><tspan x="0" y="0" fill="#FFFFFF" font-family="'MyriadPro-Bold'" font-size="35.7739" letter-spacing="-2">F</tspan><tspan x="16.492" y="0" fill="#FFFFFF" font-family="'MyriadPro-Bold'" font-size="35.7739">A</tspan><tspan x="39.136" y="0" fill="#FFFFFF" font-family="'MyriadPro-Bold'" font-size="35.7739">X</tspan></text>
</g>
</svg>
