<?xml version="1.0" encoding="utf-8"?>
<!-- Generator: Adobe Illustrator 17.0.0, SVG Export Plug-In . SVG Version: 6.00 Build 0)  -->
<!DOCTYPE svg PUBLIC "-//W3C//DTD SVG 1.1//EN" "http://www.w3.org/Graphics/SVG/1.1/DTD/svg11.dtd">
<svg version="1.1" id="Layer_1" xmlns="http://www.w3.org/2000/svg" xmlns:xlink="http://www.w3.org/1999/xlink" x="0px" y="0px"
	 width="120.21px" height="119.948px" viewBox="0 0 120.21 119.948" enable-background="new 0 0 120.21 119.948"
	 xml:space="preserve">
<path fill-rule="evenodd" clip-rule="evenodd" fill="#E87A24" d="M60.115,10.096c28.06-0.176,51.561,22.673,50.905,51.063
	c-0.612,26.846-23.462,49.351-52.245,48.679C31.403,109.192,8.481,86.805,9.192,58.633C9.871,31.846,32.446,9.955,60.115,10.096
	 M32.748,42.204c0.118,0.14,0.139,0.188,0.177,0.221c6.658,5.545,13.291,11.124,20.004,16.613c2.578,2.106,5.594,3.126,9.023,2.489
	c2.468-0.458,4.489-1.749,6.37-3.317c6.202-5.186,12.421-10.364,18.641-15.537c0.145-0.124,0.374-0.161,0.56-0.24
	c-0.072-0.076-0.156-0.154-0.229-0.229H32.748z M51.044,60.424c-6.164,5.721-12.338,11.452-18.602,17.274h55.343
	c-6.297-5.843-12.471-11.582-18.635-17.304C63.382,64.909,57.086,65.106,51.044,60.424 M89.502,43.403
	c-6.291,5.241-12.451,10.376-18.676,15.561c6.245,5.784,12.405,11.5,18.676,17.311V43.403z M30.723,76.269
	c6.317-5.853,12.46-11.552,18.642-17.283C43.134,53.79,36.97,48.657,30.723,43.448V76.269z"/>
</svg>
