<?xml version="1.0" encoding="utf-8"?>
<!-- Generator: Adobe Illustrator 17.0.0, SVG Export Plug-In . SVG Version: 6.00 Build 0)  -->
<!DOCTYPE svg PUBLIC "-//W3C//DTD SVG 1.1//EN" "http://www.w3.org/Graphics/SVG/1.1/DTD/svg11.dtd">
<svg version="1.1" id="Layer_1" xmlns="http://www.w3.org/2000/svg" xmlns:xlink="http://www.w3.org/1999/xlink" x="0px" y="0px"
	 width="120.21px" height="119.948px" viewBox="0 0 120.21 119.948" enable-background="new 0 0 120.21 119.948"
	 xml:space="preserve">
<path fill="#E87A24" d="M111.627,56.57v6.839c-0.061,0.216-0.16,0.425-0.175,0.639c-0.546,7.288-2.58,14.143-6.082,20.544
	c-10.157,18.57-30.216,28.973-51.262,26.499c-13.71-1.609-25.104-7.782-33.748-18.484C9.236,78.829,6.005,63.137,10.611,46.035
	C15.859,26.553,32.747,11.85,52.679,9.053c1.345-0.192,2.69-0.372,4.036-0.557h6.836c0.181,0.06,0.357,0.157,0.54,0.17
	c6.999,0.517,13.656,2.325,19.82,5.678c15.216,8.282,24.294,20.984,27.143,38.098C111.283,53.814,111.438,55.195,111.627,56.57
	 M31.153,41.403c0.07,1.068,0.117,2.139,0.221,3.206c0.104,1.099,0.227,2.197,0.407,3.286c1.851,11.196,6.898,20.694,15.273,28.352
	c7.89,7.213,17.228,11.298,27.839,12.441c1.918,0.208,3.998,0.567,5.778,0.057c3.823-1.091,6.417-4.038,7.948-7.523
	c1.649-3.752-0.952-8.313-4.994-9.555c-2.396-0.737-4.822-1.389-7.257-2.001c-2.764-0.695-5.235-0.123-7.275,1.961
	c-0.587,0.599-1.21,1.163-1.767,1.786c-0.406,0.453-0.79,0.573-1.399,0.376c-9.424-3.044-15.783-9.251-19.263-18.494
	c-0.5-1.337-0.456-2.332,0.776-3.181c0.435-0.299,0.774-0.74,1.146-1.126c1.95-2.025,2.565-4.425,1.9-7.127
	c-0.574-2.338-1.194-4.666-1.904-6.965c-0.289-0.941-0.734-1.893-1.33-2.671c-2.946-3.841-8.231-4.363-11.416-0.768
	c-0.796,0.905-1.657,1.76-2.558,2.558C31.641,37.463,30.992,39.262,31.153,41.403"/>
</svg>
